# xmcd
#
# Track frame offsets:
#	150
#	8270
#	19003
#	29673
#	40860
#	50613
#	59945
#	69153
#	81883
#	91215
#	103393
#	113395
#	122875
#	133475
#	144000
#	153053
#
# Disc length: 2155 seconds
#
# Revision: 1
# Processed by: cddbd v1.5.1PL0 Copyright (c) Steve Scherf et al.
# Submitted via: audiograbber 1.83.01
#
DISCID=cf086910
DTITLE=Grandpa Jones - Nashville On My Mind
DYEAR=1974
DGENRE=Country
TTITLE0=Old Rattler
TTITLE1=Eight more miles To Louisville
TTITLE2=Banjo Sam
TTITLE3=Night Train To Memphis
TTITLE4=Going Across The Sea
TTITLE5=Old Blue
TTITLE6=Mountain Dew
TTITLE7=King Of The Cannon County Hills
TTITLE8=Are You From Dixie
TTITLE9=Trpuble In Mind
TTITLE10=Pretty Little Devilish Mary
TTITLE11=The Banjo Am The Instrument
TTITLE12=T For Texas
TTITLE13=Nashville On My Mind
TTITLE14=Dear Old Sunny South
TTITLE15=Green Hills Of Home
EXTD=
EXTT0=
EXTT1=
EXTT2=
EXTT3=
EXTT4=
EXTT5=
EXTT6=
EXTT7=
EXTT8=
EXTT9=
EXTT10=
EXTT11=
EXTT12=
EXTT13=
EXTT14=
EXTT15=
PLAYORDER=
